<?xml version="1.0" encoding="UTF-8" standalone="no"?>
<!-- Uploaded to: SVG Repo, www.svgrepo.com, Generator: SVG Repo Mixer Tools -->

<svg
   fill="#000000"
   height="522"
   width="522"
   version="1.1"
   id="Layer_1"
   viewBox="0 0 334.08 334.08"
   xml:space="preserve"
   sodipodi:docname="wombat-logo-white.svg"
   inkscape:version="1.3.2 (091e20e, 2023-11-25, custom)"
   xmlns:inkscape="http://www.inkscape.org/namespaces/inkscape"
   xmlns:sodipodi="http://sodipodi.sourceforge.net/DTD/sodipodi-0.dtd"
   xmlns="http://www.w3.org/2000/svg"
   xmlns:svg="http://www.w3.org/2000/svg"><defs
   id="defs4" /><sodipodi:namedview
   id="namedview4"
   pagecolor="#f0f0f0"
   bordercolor="#000000"
   borderopacity="0.25"
   inkscape:showpageshadow="2"
   inkscape:pageopacity="0.0"
   inkscape:pagecheckerboard="0"
   inkscape:deskcolor="#d1d1d1"
   inkscape:zoom="1.0367953"
   inkscape:cx="359.28018"
   inkscape:cy="397.8606"
   inkscape:window-width="2560"
   inkscape:window-height="1369"
   inkscape:window-x="1912"
   inkscape:window-y="-8"
   inkscape:window-maximized="1"
   inkscape:current-layer="layer4" />


<g
   inkscape:groupmode="layer"
   id="layer3"
   inkscape:label="Layer 1"
   style="opacity:1"
   transform="translate(-93.580078,-34.21875)" /><g
   inkscape:groupmode="layer"
   id="layer4"
   inkscape:label="Layer 2"
   transform="translate(-93.580078,-34.21875)"><g
     id="g11"
     transform="matrix(0.9989194,0,0,0.99891937,0.10112288,0.03697769)"
     style="fill:#ffffff;fill-opacity:1"><path
       style="color:#000000;fill:#ffffff;fill-opacity:1;stroke-linejoin:round;-inkscape-stroke:none"
       d="m 260.80078,34.21875 c -92.27887,0 -167.220702,74.94184 -167.220702,167.2207 0,92.27887 74.941832,167.22071 167.220702,167.22071 92.27887,0 167.2207,-74.94184 167.2207,-167.22071 0,-92.27886 -74.94183,-167.2207 -167.2207,-167.2207 z m 0,12.554687 c 85.49408,0 154.66602,69.171933 154.66602,154.666013 0,85.49408 -69.17194,154.66602 -154.66602,154.66602 -85.49408,0 -154.66601,-69.17194 -154.66601,-154.66602 0,-85.49408 69.17193,-154.666013 154.66601,-154.666013 z"
       id="path4" /><path
       style="fill:#ffffff;fill-opacity:1;stroke:none;stroke-width:0.64;stroke-linejoin:round;stroke-dasharray:none;stroke-opacity:1"
       d="m 120.37091,273.45802 c 4.51375,-27.56042 20.06274,-36.33964 55.86446,-77.16084 8.22459,19.85606 19.55332,39.71211 33.95077,59.56817 -17.7719,13.93044 -3.20745,39.30923 0.24359,46.00819 l 1.53111,0.0954 c 8.75827,20.61227 19.63235,27.63551 31.36588,28.54951 -2.66302,2.34871 -5.6026,4.58219 -9.99233,6.21144 -15.73562,-0.78563 -0.78645,17.60168 2.77779,4.62965 5.40069,-3.41241 10.80894,-6.8223 14.50623,-10.80251 7.57239,-1.07255 11.72589,-3.18562 16.04946,-5.24694 15.94068,-1.3313 0.49416,-17.08218 -2.1605,-4.9383 -2.47984,1.92562 -5.33259,3.55291 -9.25931,4.32102 13.766,-17.21837 -3.09314,-39.24643 -6.17286,-45.06194 l 0.77936,-1.46993 c -7.41612,-11.6112 -18.17701,-28.66133 -34.42149,-25.38204 -14.60766,-20.88487 -26.01144,-41.76974 -36.11127,-62.65461 4.6581,-18.86895 10.23909,-25.74033 15.74081,-33.64212 -21.10967,-12.35117 -8.40633,-62.165702 27.16062,-23.14826 l 83.64235,-2.1605 c 14.65673,10.26395 30.93237,22.70923 45.67922,44.136 3.47652,2.62796 7.02722,4.31513 7.0988,12.96302 -4.00923,12.13193 -5.43326,22.62181 -15.12353,32.40756 -5.18853,2.45779 -10.72581,4.75637 -29.01248,1.23458 0.8164,3.17121 5.26311,6.01239 18.82725,8.02472 -5.29213,2.52166 -10.098,7.24102 -22.83961,7.71608 -46.18883,18.28082 -78.26607,-3.84523 -100.92639,-13.88895 7.09642,11.66835 45.26115,37.45648 96.60538,22.22233 2.23963,10.72337 1.09795,20.03387 -1.3889,27.46926 -9.69811,-0.73766 -16.87329,10.79171 -12.50005,20.06182 6.07015,12.86712 19.09957,9.71087 23.68838,4.78397 6.64085,-7.13014 5.53768,-18.91775 -4.86113,-23.91986 2.39865,-9.70781 4.2285,-19.75173 2.1605,-32.09892 l 4.62965,-0.30864 c 20.13233,19.59917 31.91397,50.71931 32.09892,87.65472 -73.07823,73.86301 -190.43754,18.63013 -229.63068,-56.1731 z"
       id="path5"
       sodipodi:nodetypes="ccccccccccccccccccccccccccccssccccc" /><path
       style="fill:#ffffff;fill-opacity:1;stroke:none;stroke-width:0.64;stroke-linejoin:round;stroke-dasharray:none;stroke-opacity:1"
       d="m 216.44004,298.3319 c -13.53818,-24.76315 -7.78772,-34.63255 -0.50168,-38.34757 7.37053,-3.7581 18.02791,1.66199 27.78545,21.6866 l 1.41858,0.0546 c 6.8989,10.78179 17.48936,27.78001 3.54646,43.89429 -9.3624,2.31884 -24.21743,-3.43857 -32.73657,-25.69821 z"
       id="path6"
       sodipodi:nodetypes="csccccc" /><ellipse
       style="fill:#ffffff;fill-opacity:1;stroke:none;stroke-width:0.881967;stroke-linejoin:round;stroke-dasharray:none;stroke-opacity:1"
       id="path7"
       cx="305.3504"
       cy="288"
       rx="7.7085142"
       ry="8.4723663" /><ellipse
       style="fill:#ffffff;fill-opacity:1;stroke:none;stroke-width:0.831092;stroke-linejoin:round;stroke-dasharray:none;stroke-opacity:1"
       id="ellipse7"
       cx="291.42563"
       cy="168.18861"
       rx="8.0067568"
       ry="7.2429018" /><path
       style="fill:#ffffff;fill-opacity:1;stroke:none;stroke-width:0.64;stroke-linejoin:round;stroke-dasharray:none;stroke-opacity:1"
       d="m 345.91645,207.11339 c -11.74099,-19.97166 -6.83485,-27.43522 3.05542,-32.40921 -7.24155,-1.20921 -16.37428,2.02895 -16.47741,11.23955 -0.11891,10.62021 8.97615,19.61695 13.42199,21.16966 z"
       id="path8"
       sodipodi:nodetypes="ccsc" /><path
       style="fill:#ffffff;fill-opacity:1;stroke:none;stroke-width:0.64;stroke-linejoin:round;stroke-dasharray:none;stroke-opacity:1"
       d="m 210.82353,152.77068 c 2.54143,-2.58414 4.22412,-5.45452 5.01961,-8.62064 0.66915,-3.34573 -13.94186,-19.96947 -19.64194,-13.64024 -6.73962,7.48351 11.3085,27.12117 14.62233,22.26088 z"
       id="path9"
       sodipodi:nodetypes="ccsc" /><path
       style="fill:#ffffff;fill-opacity:1;stroke:none;stroke-width:0.64;stroke-linejoin:round;stroke-dasharray:none;stroke-opacity:1"
       d="m 175.61808,95.833766 37.34584,15.586494 -0.30864,5.86422 c 6.1189,4.23369 8.31134,7.21805 11.4198,10.49388 l 81.17321,-1.08025 -1.69754,-16.97539 20.21614,-6.63583 0.15433,16.20377 c -4.19187,1.77796 -2.57455,11.10789 -3.85805,16.66674 l 13.58031,-0.15432 c -1.48754,-5.60784 0.7688,-11.93565 -4.47533,-16.82106 l -0.30864,-17.74699 13.73463,-5.864227 -84.87692,-31.327302 z"
       id="path10"
       sodipodi:nodetypes="ccccccccccccccc" /></g></g></svg>
