<?xml version="1.0" encoding="UTF-8" standalone="no"?>
<!-- Uploaded to: SVG Repo, www.svgrepo.com, Generator: SVG Repo Mixer Tools -->

<svg
   fill="#000000"
   height="123.81413"
   width="142.84612"
   version="1.1"
   id="Layer_1"
   viewBox="0 0 91.421462 79.241"
   xml:space="preserve"
   sodipodi:docname="wombat-logo-whit-small.svg"
   inkscape:version="1.3.2 (091e20e, 2023-11-25, custom)"
   xmlns:inkscape="http://www.inkscape.org/namespaces/inkscape"
   xmlns:sodipodi="http://sodipodi.sourceforge.net/DTD/sodipodi-0.dtd"
   xmlns="http://www.w3.org/2000/svg"
   xmlns:svg="http://www.w3.org/2000/svg"><defs
   id="defs4" /><sodipodi:namedview
   id="namedview4"
   pagecolor="#f0f0f0"
   bordercolor="#000000"
   borderopacity="0.25"
   inkscape:showpageshadow="2"
   inkscape:pageopacity="0.0"
   inkscape:pagecheckerboard="0"
   inkscape:deskcolor="#d1d1d1"
   inkscape:zoom="1.46625"
   inkscape:cx="224.72294"
   inkscape:cy="183.80222"
   inkscape:window-width="2560"
   inkscape:window-height="1369"
   inkscape:window-x="1912"
   inkscape:window-y="-8"
   inkscape:window-maximized="1"
   inkscape:current-layer="layer4" />


<g
   inkscape:groupmode="layer"
   id="layer3"
   inkscape:label="Layer 1"
   style="opacity:1"
   transform="translate(-205.89492,-164.92231)" /><g
   inkscape:groupmode="layer"
   id="layer4"
   inkscape:label="Layer 2"
   transform="translate(-205.89492,-164.92231)"><path
     id="path1"
     style="fill:#ffffff;fill-opacity:1;stroke:none;stroke-width:0.64;stroke-linejoin:round;stroke-opacity:1"
     d="m 272.97102,164.92585 c -1.86874,-0.12658 -4.37036,3.13741 -7.505,9.7925 -47.78144,-11.28719 -80.87475,39.80663 -43.365,69.445 h 12.34625 c 0.15448,-9.85657 13.887,-21.16934 20.37,-0.46375 h 12.96375 c 6.58411,-1.392 1.31581,-13.29506 -0.30875,-18.5175 47.14041,20.98773 29.02836,-40.58714 9.41375,-46.76 -0.49189,-8.85423 -1.7971,-13.3528 -3.915,-13.49625 z m 5.68875,35.41 a 5.4784198,5.4784198 0 0 1 5.47875,5.47875 5.4784198,5.4784198 0 0 1 -5.47875,5.4775 5.4784198,5.4784198 0 0 1 -5.4775,-5.4775 5.4784198,5.4784198 0 0 1 5.4775,-5.47875 z" /></g></svg>
