<?xml version="1.0" encoding="UTF-8" standalone="no"?>
<!-- Uploaded to: SVG Repo, www.svgrepo.com, Generator: SVG Repo Mixer Tools -->

<svg
   fill="#000000"
   height="522"
   width="522"
   version="1.1"
   id="Layer_1"
   viewBox="0 0 334.08 334.08"
   xml:space="preserve"
   sodipodi:docname="wombat-logo-working.svg"
   inkscape:version="1.3.2 (091e20e, 2023-11-25, custom)"
   xmlns:inkscape="http://www.inkscape.org/namespaces/inkscape"
   xmlns:sodipodi="http://sodipodi.sourceforge.net/DTD/sodipodi-0.dtd"
   xmlns="http://www.w3.org/2000/svg"
   xmlns:svg="http://www.w3.org/2000/svg"><defs
   id="defs4" /><sodipodi:namedview
   id="namedview4"
   pagecolor="#dcdcdc"
   bordercolor="#000000"
   borderopacity="0.25"
   inkscape:showpageshadow="2"
   inkscape:pageopacity="0.0"
   inkscape:pagecheckerboard="0"
   inkscape:deskcolor="#d1d1d1"
   inkscape:zoom="0.733125"
   inkscape:cx="339.64194"
   inkscape:cy="403.06905"
   inkscape:window-width="2560"
   inkscape:window-height="1369"
   inkscape:window-x="1912"
   inkscape:window-y="-8"
   inkscape:window-maximized="1"
   inkscape:current-layer="layer4" />


<g
   inkscape:groupmode="layer"
   id="layer3"
   inkscape:label="Layer 1"
   style="opacity:1"
   transform="translate(-93.580078,-34.21875)" /><g
   inkscape:groupmode="layer"
   id="layer4"
   inkscape:label="Layer 2"
   transform="translate(-93.580078,-34.21875)"><path
     id="path18"
     style="fill:#082a40;fill-opacity:1;stroke:none;stroke-width:0.637557;stroke-linejoin:round;stroke-dasharray:none;stroke-opacity:1"
     d="M 237.14508 35.8975 A 167.03999 167.03999 0 0 0 236.66383 35.95875 C 236.82344 35.935768 236.98532 35.92003 237.14508 35.8975 z M 213.78758 40.935 A 167.03999 167.03999 0 0 0 213.38883 41.04875 C 213.52126 41.0097 213.65501 40.97373 213.78758 40.935 z M 260.62008 46.76 C 175.21847 46.76 106.12133 115.85714 106.12133 201.25875 C 106.12133 225.26045 111.5803 247.97339 121.32383 268.2275 C 126.88013 244.4433 142.62719 234.34108 176.14633 196.1225 C 184.36199 215.95701 195.67823 235.79175 210.06008 255.62625 C 192.30748 269.54159 206.85652 294.89208 210.30383 301.58375 L 211.83258 301.68 C 220.58133 322.2699 231.44428 329.28574 243.16508 330.19875 C 240.50494 332.54492 237.56877 334.77501 233.18383 336.4025 C 217.46527 335.61772 232.39719 353.98547 235.95758 341.0275 C 241.35238 337.61878 246.75554 334.21216 250.44883 330.23625 C 258.01299 329.16486 262.16243 327.05409 266.48133 324.995 C 282.40469 323.66514 266.97437 307.9318 264.32258 320.0625 C 261.84542 321.98604 258.99626 323.61147 255.07383 324.37875 C 268.82486 307.17909 251.98397 285.17543 248.90758 279.36625 L 249.68508 277.8975 C 242.27702 266.2989 231.52815 249.26675 215.30133 252.5425 C 200.7095 231.6803 189.31769 210.81845 179.22883 189.95625 C 183.88184 171.10779 189.4568 164.2432 194.95258 156.35 C 179.79645 147.48224 182.08956 119.28203 197.77008 118.5925 C 203.90591 118.32268 212.09148 122.2645 222.08383 133.22625 L 305.63633 131.06875 C 320.27713 141.32156 336.53547 153.75399 351.26633 175.1575 C 354.73905 177.78262 358.28608 179.46776 358.35758 188.10625 C 354.35268 200.22502 352.92982 210.70363 343.25008 220.47875 C 338.06715 222.93389 332.53564 225.22923 314.26883 221.71125 C 315.08434 224.87903 319.5269 227.71734 333.07633 229.7275 C 327.78992 232.24643 322.98912 236.96045 310.26133 237.435 C 264.12261 255.69597 232.07957 233.59407 209.44383 223.56125 C 216.53253 235.21694 254.65658 260.97759 305.94508 245.76 C 308.18229 256.47174 307.04174 265.7727 304.55758 273.2 C 294.87 272.46314 287.70157 283.97996 292.07008 293.24 C 298.13362 306.09317 311.14998 302.94028 315.73383 298.01875 C 322.36746 290.89637 321.26511 279.12165 310.87758 274.125 C 313.27364 264.42773 315.10085 254.39379 313.03508 242.06 L 317.66008 241.75125 C 337.4402 261.00755 349.12488 291.41121 349.68008 327.51125 C 389.26761 299.55123 415.11883 253.46922 415.11883 201.25875 C 415.11883 115.85714 346.02169 46.76 260.62008 46.76 z M 326.47508 47.74875 C 326.52774 47.771401 326.57869 47.797296 326.63133 47.82 A 167.03999 167.03999 0 0 0 326.47508 47.74875 z M 191.66883 49.15 A 167.03999 167.03999 0 0 0 190.85508 49.5175 C 191.12522 49.392943 191.39792 49.273154 191.66883 49.15 z M 333.85883 51.14125 C 334.56286 51.485761 335.25038 51.858416 335.94883 52.2125 A 167.03999 167.03999 0 0 0 333.85883 51.14125 z M 340.99258 54.84625 C 342.14547 55.481074 343.2752 56.151441 344.41133 56.8125 A 167.03999 167.03999 0 0 0 340.99258 54.84625 z M 347.91633 58.875 C 349.34769 59.755141 350.75264 60.673345 352.15508 61.595 A 167.03999 167.03999 0 0 0 347.91633 58.875 z M 171.06508 60.325 A 167.03999 167.03999 0 0 0 169.64008 61.23875 C 170.11274 60.930781 170.58913 60.628298 171.06508 60.325 z M 354.60008 63.20625 C 356.19526 64.294966 357.76264 65.42062 359.31758 66.5625 A 167.03999 167.03999 0 0 0 354.60008 63.20625 z M 257.54008 64.01125 L 342.32508 95.305 L 328.60508 101.1625 L 328.91383 118.89 C 334.15228 123.77013 331.8979 130.09199 333.38383 135.69375 L 319.81883 135.8475 C 321.10095 130.29468 319.48524 120.97479 323.67258 119.19875 L 323.51758 103.0125 L 303.32383 109.64125 L 305.02008 126.59875 L 223.93383 127.6775 C 220.82873 124.40521 218.6386 121.42411 212.52633 117.195 L 212.83508 111.33625 L 175.52883 95.7675 L 257.54008 64.01125 z M 361.07008 67.84875 C 362.74926 69.11567 364.39974 70.418298 366.02883 71.74625 A 167.03999 167.03999 0 0 0 361.07008 67.84875 z M 367.31133 72.7925 C 369.02628 74.21878 370.7103 75.679937 372.36633 77.1725 A 167.03999 167.03999 0 0 0 367.31133 72.7925 z M 152.16633 74.32 A 167.03999 167.03999 0 0 0 150.40633 75.845 C 150.9892 75.332253 151.5763 74.824718 152.16633 74.32 z M 373.29883 78.015 C 374.9916 79.563756 376.65232 81.147377 378.28008 82.76375 A 167.03999 167.03999 0 0 0 373.29883 78.015 z M 379.11508 83.59875 C 380.73145 85.226505 382.31507 86.88723 383.86383 88.58 A 167.03999 167.03999 0 0 0 379.11508 83.59875 z M 384.70633 89.5125 C 386.19889 91.168523 387.66005 92.85255 389.08633 94.5675 A 167.03999 167.03999 0 0 0 384.70633 89.5125 z M 135.20633 91.045 A 167.03999 167.03999 0 0 0 133.68133 92.805 C 134.18605 92.214977 134.69358 91.627874 135.20633 91.045 z M 390.13258 95.85 C 391.46053 97.479088 392.76316 99.129564 394.03008 100.80875 A 167.03999 167.03999 0 0 0 390.13258 95.85 z M 395.31633 102.56125 C 396.45821 104.11619 397.58386 105.68356 398.67258 107.27875 A 167.03999 167.03999 0 0 0 395.31633 102.56125 z M 400.28383 109.72375 C 401.20548 111.12619 402.12369 112.53114 403.00383 113.9625 A 167.03999 167.03999 0 0 0 400.28383 109.72375 z M 120.60008 110.27875 A 167.03999 167.03999 0 0 0 119.68633 111.70375 C 119.98963 111.2278 120.29211 110.75142 120.60008 110.27875 z M 405.06633 117.4675 C 405.72739 118.60362 406.39775 119.73336 407.03258 120.88625 A 167.03999 167.03999 0 0 0 405.06633 117.4675 z M 409.66633 125.93 C 410.02041 126.62845 410.39307 127.31597 410.73758 128.02 A 167.03999 167.03999 0 0 0 409.66633 125.93 z M 108.87883 131.49375 A 167.03999 167.03999 0 0 0 108.51133 132.3075 C 108.63448 132.03659 108.75427 131.76389 108.87883 131.49375 z M 414.05883 135.2475 C 414.08153 135.30013 414.10743 135.35109 414.13008 135.40375 A 167.03999 167.03999 0 0 0 414.05883 135.2475 z M 100.41008 154.0275 A 167.03999 167.03999 0 0 0 100.29633 154.42625 C 100.33506 154.29368 100.37103 154.15993 100.41008 154.0275 z M 95.320078 177.3025 A 167.03999 167.03999 0 0 0 95.258828 177.78375 C 95.281358 177.62399 95.297096 177.46211 95.320078 177.3025 z M 95.258828 224.73375 A 167.03999 167.03999 0 0 0 95.320078 225.215 C 95.297096 225.05539 95.281358 224.89351 95.258828 224.73375 z M 100.29633 248.09125 A 167.03999 167.03999 0 0 0 100.41008 248.49 C 100.37103 248.35756 100.33506 248.22382 100.29633 248.09125 z M 220.26633 258.63125 C 227.1293 258.52938 235.64194 265.1514 243.56133 281.40375 L 244.97883 281.4575 C 251.87024 292.2276 262.44908 309.20822 248.52133 325.305 C 239.16909 327.62134 224.32998 321.87051 215.82008 299.635 L 216.30758 298.04625 C 202.78407 273.30994 208.5282 263.45101 215.80633 259.74 C 217.18681 259.03612 218.68256 258.65476 220.26633 258.63125 z M 414.13008 267.11375 C 414.10743 267.16641 414.08153 267.21737 414.05883 267.27 A 167.03999 167.03999 0 0 0 414.13008 267.11375 z M 108.51133 270.21 A 167.03999 167.03999 0 0 0 108.87883 271.02375 C 108.75427 270.75361 108.63448 270.48091 108.51133 270.21 z M 410.73758 274.4975 C 410.39307 275.20153 410.02041 275.88905 409.66633 276.5875 A 167.03999 167.03999 0 0 0 410.73758 274.4975 z M 305.12133 279.2625 A 7.7001843 8.4632111 0 0 1 312.82133 287.72625 A 7.7001843 8.4632111 0 0 1 305.12133 296.18875 A 7.7001843 8.4632111 0 0 1 297.42133 287.72625 A 7.7001843 8.4632111 0 0 1 305.12133 279.2625 z M 407.03258 281.63125 C 406.39775 282.78414 405.72739 283.91387 405.06633 285.05 A 167.03999 167.03999 0 0 0 407.03258 281.63125 z M 403.00383 288.555 C 402.12369 289.98636 401.20548 291.39131 400.28383 292.79375 A 167.03999 167.03999 0 0 0 403.00383 288.555 z M 119.68633 290.81375 A 167.03999 167.03999 0 0 0 120.60008 292.23875 C 120.29211 291.76608 119.98963 291.2897 119.68633 290.81375 z M 398.67258 295.23875 C 397.58386 296.83393 396.45821 298.40131 395.31633 299.95625 A 167.03999 167.03999 0 0 0 398.67258 295.23875 z M 394.03008 301.70875 C 392.76316 303.38794 391.46053 305.03841 390.13258 306.6675 A 167.03999 167.03999 0 0 0 394.03008 301.70875 z M 389.08633 307.95 C 387.66005 309.66495 386.19889 311.34898 384.70633 313.005 A 167.03999 167.03999 0 0 0 389.08633 307.95 z M 133.68133 309.7125 A 167.03999 167.03999 0 0 0 135.20633 311.4725 C 134.69358 310.88963 134.18605 310.30252 133.68133 309.7125 z M 383.86383 313.9375 C 382.31507 315.63027 380.73145 317.291 379.11508 318.91875 A 167.03999 167.03999 0 0 0 383.86383 313.9375 z M 378.28008 319.75375 C 376.65232 321.37012 374.9916 322.95374 373.29883 324.5025 A 167.03999 167.03999 0 0 0 378.28008 319.75375 z M 372.36633 325.345 C 370.7103 326.83756 369.02628 328.29872 367.31133 329.725 A 167.03999 167.03999 0 0 0 372.36633 325.345 z M 150.40633 326.6725 A 167.03999 167.03999 0 0 0 152.16633 328.1975 C 151.5763 327.69278 150.9892 327.18525 150.40633 326.6725 z M 366.02883 330.77125 C 364.39974 332.0992 362.74926 333.40183 361.07008 334.66875 A 167.03999 167.03999 0 0 0 366.02883 330.77125 z M 359.31758 335.955 C 357.76264 337.09688 356.19526 338.22253 354.60008 339.31125 A 167.03999 167.03999 0 0 0 359.31758 335.955 z M 352.15508 340.9225 C 350.75264 341.84415 349.34769 342.76236 347.91633 343.6425 A 167.03999 167.03999 0 0 0 352.15508 340.9225 z M 169.64008 341.27875 A 167.03999 167.03999 0 0 0 171.06508 342.1925 C 170.58913 341.8892 170.11274 341.58672 169.64008 341.27875 z M 344.41133 345.705 C 343.2752 346.36606 342.14547 347.03643 340.99258 347.67125 A 167.03999 167.03999 0 0 0 344.41133 345.705 z M 335.94883 350.305 C 335.25038 350.65908 334.56286 351.03174 333.85883 351.37625 A 167.03999 167.03999 0 0 0 335.94883 350.305 z M 190.85508 353 A 167.03999 167.03999 0 0 0 191.66883 353.3675 C 191.39792 353.24435 191.12522 353.12456 190.85508 353 z M 326.63133 354.6975 C 326.57869 354.7202 326.52774 354.7461 326.47508 354.76875 A 167.03999 167.03999 0 0 0 326.63133 354.6975 z M 213.38883 361.46875 A 167.03999 167.03999 0 0 0 213.78758 361.5825 C 213.65501 361.54377 213.52126 361.5078 213.38883 361.46875 z M 236.66383 366.55875 A 167.03999 167.03999 0 0 0 237.14508 366.62 C 236.98532 366.59747 236.82344 366.58173 236.66383 366.55875 z " /><ellipse
     style="fill:#082a40;fill-opacity:1;stroke:none;stroke-width:0.830194;stroke-linejoin:round;stroke-dasharray:none;stroke-opacity:1"
     id="ellipse7"
     cx="291.21182"
     cy="168.04384"
     rx="7.9981046"
     ry="7.235075" /><path
     style="fill:#082a40;fill-opacity:1;stroke:none;stroke-width:0.639308;stroke-linejoin:round;stroke-dasharray:none;stroke-opacity:1"
     d="m 345.64378,206.92655 c -11.72831,-19.95007 -6.82747,-27.40557 3.05211,-32.37418 -7.23372,-1.20791 -16.35658,2.02675 -16.4596,11.2274 -0.11878,10.60873 8.96645,19.59575 13.40749,21.14678 z"
     id="path8"
     sodipodi:nodetypes="ccsc" /><path
     style="fill:#082a40;fill-opacity:1;stroke:none;stroke-width:0.639308;stroke-linejoin:round;stroke-dasharray:none;stroke-opacity:1"
     d="m 210.69684,152.64257 c 2.53868,-2.58135 4.21955,-5.44863 5.01418,-8.61133 0.66843,-3.34211 -13.92679,-19.94789 -19.62071,-13.6255 -6.73234,7.47543 11.29628,27.09187 14.60653,22.23683 z"
     id="path9"
     sodipodi:nodetypes="ccsc" /><g
     id="g17"
     transform="matrix(0.9989194,0,0,0.99891937,421.70796,3.7406981)"><path
       style="color:#000000;fill:#082a40;fill-opacity:1;stroke-linejoin:round;-inkscape-stroke:none"
       d="m 260.80078,34.21875 c -92.27887,0 -167.220702,74.94184 -167.220702,167.2207 0,92.27887 74.941832,167.22071 167.220702,167.22071 92.27887,0 167.2207,-74.94184 167.2207,-167.22071 0,-92.27886 -74.94183,-167.2207 -167.2207,-167.2207 z m 0,12.554687 c 85.49408,0 154.66602,69.171933 154.66602,154.666013 0,85.49408 -69.17194,154.66602 -154.66602,154.66602 -85.49408,0 -154.66601,-69.17194 -154.66601,-154.66602 0,-85.49408 69.17193,-154.666013 154.66601,-154.666013 z"
       id="path12" /><path
       style="fill:#082a40;fill-opacity:1;stroke:none;stroke-width:0.64;stroke-linejoin:round;stroke-dasharray:none;stroke-opacity:1"
       d="m 120.37091,273.45802 c 4.51375,-27.56042 20.06274,-36.33964 55.86446,-77.16084 8.22459,19.85606 19.55332,39.71211 33.95077,59.56817 -17.7719,13.93044 -3.20745,39.30923 0.24359,46.00819 l 1.53111,0.0954 c 8.75827,20.61227 19.63235,27.63551 31.36588,28.54951 -2.66302,2.34871 -5.6026,4.58219 -9.99233,6.21144 -15.73562,-0.78563 -0.78645,17.60168 2.77779,4.62965 5.40069,-3.41241 10.80894,-6.8223 14.50623,-10.80251 7.57239,-1.07255 11.72589,-3.18562 16.04946,-5.24694 15.94068,-1.3313 0.49416,-17.08218 -2.1605,-4.9383 -2.47984,1.92562 -5.33259,3.55291 -9.25931,4.32102 13.766,-17.21837 -3.09314,-39.24643 -6.17286,-45.06194 l 0.77936,-1.46993 c -7.41612,-11.6112 -18.17701,-28.66133 -34.42149,-25.38204 -14.60766,-20.88487 -26.01144,-41.76974 -36.11127,-62.65461 4.6581,-18.86895 10.23909,-25.74033 15.74081,-33.64212 -21.10967,-12.35117 -8.40633,-62.165702 27.16062,-23.14826 l 83.64235,-2.1605 c 14.65673,10.26395 30.93237,22.70923 45.67922,44.136 3.47652,2.62796 7.02722,4.31513 7.0988,12.96302 -4.00923,12.13193 -5.43326,22.62181 -15.12353,32.40756 -5.18853,2.45779 -10.72581,4.75637 -29.01248,1.23458 0.8164,3.17121 5.26311,6.01239 18.82725,8.02472 -5.29213,2.52166 -10.098,7.24102 -22.83961,7.71608 -46.18883,18.28082 -78.26607,-3.84523 -100.92639,-13.88895 7.09642,11.66835 45.26115,37.45648 96.60538,22.22233 2.23963,10.72337 1.09795,20.03387 -1.3889,27.46926 -9.69811,-0.73766 -16.87329,10.79171 -12.50005,20.06182 6.07015,12.86712 19.09957,9.71087 23.68838,4.78397 6.64085,-7.13014 5.53768,-18.91775 -4.86113,-23.91986 2.39865,-9.70781 4.2285,-19.75173 2.1605,-32.09892 l 4.62965,-0.30864 c 20.13233,19.59917 31.91397,50.71931 32.09892,87.65472 -73.07823,73.86301 -190.43754,18.63013 -229.63068,-56.1731 z"
       id="path13"
       sodipodi:nodetypes="ccccccccccccccccccccccccccccssccccc" /><path
       style="fill:#082a40;fill-opacity:1;stroke:none;stroke-width:0.64;stroke-linejoin:round;stroke-dasharray:none;stroke-opacity:1"
       d="m 216.44004,298.3319 c -13.53818,-24.76315 -7.78772,-34.63255 -0.50168,-38.34757 7.37053,-3.7581 18.02791,1.66199 27.78545,21.6866 l 1.41858,0.0546 c 6.8989,10.78179 17.48936,27.78001 3.54646,43.89429 -9.3624,2.31884 -24.21743,-3.43857 -32.73657,-25.69821 z"
       id="path14"
       sodipodi:nodetypes="csccccc" /><ellipse
       style="fill:#082a40;fill-opacity:1;stroke:none;stroke-width:0.881967;stroke-linejoin:round;stroke-dasharray:none;stroke-opacity:1"
       id="ellipse14"
       cx="305.3504"
       cy="288"
       rx="7.7085142"
       ry="8.4723663" /><ellipse
       style="fill:#ffffff;fill-opacity:1;stroke:none;stroke-width:0.831092;stroke-linejoin:round;stroke-dasharray:none;stroke-opacity:1"
       id="ellipse15"
       cx="291.42563"
       cy="168.18861"
       rx="8.0067568"
       ry="7.2429018" /><path
       style="fill:#ffffff;fill-opacity:1;stroke:none;stroke-width:0.64;stroke-linejoin:round;stroke-dasharray:none;stroke-opacity:1"
       d="m 345.91645,207.11339 c -11.74099,-19.97166 -6.83485,-27.43522 3.05542,-32.40921 -7.24155,-1.20921 -16.37428,2.02895 -16.47741,11.23955 -0.11891,10.62021 8.97615,19.61695 13.42199,21.16966 z"
       id="path15"
       sodipodi:nodetypes="ccsc" /><path
       style="fill:#ffffff;fill-opacity:1;stroke:none;stroke-width:0.64;stroke-linejoin:round;stroke-dasharray:none;stroke-opacity:1"
       d="m 210.82353,152.77068 c 2.54143,-2.58414 4.22412,-5.45452 5.01961,-8.62064 0.66915,-3.34573 -13.94186,-19.96947 -19.64194,-13.64024 -6.73962,7.48351 11.3085,27.12117 14.62233,22.26088 z"
       id="path16"
       sodipodi:nodetypes="ccsc" /><path
       style="fill:#082a40;fill-opacity:1;stroke:none;stroke-width:0.64;stroke-linejoin:round;stroke-dasharray:none;stroke-opacity:1"
       d="m 175.61808,95.833766 37.34584,15.586494 -0.30864,5.86422 c 6.1189,4.23369 8.31134,7.21805 11.4198,10.49388 l 81.17321,-1.08025 -1.69754,-16.97539 20.21614,-6.63583 0.15433,16.20377 c -4.19187,1.77796 -2.57455,11.10789 -3.85805,16.66674 l 13.58031,-0.15432 c -1.48754,-5.60784 0.7688,-11.93565 -4.47533,-16.82106 l -0.30864,-17.74699 13.73463,-5.864227 -84.87692,-31.327302 z"
       id="path17"
       sodipodi:nodetypes="ccccccccccccccc" /></g></g></svg>
