<?xml version="1.0" encoding="UTF-8" standalone="no"?>
<svg
   version="1.1"
   width="567px"
   height="449px"
   style="shape-rendering:geometricPrecision; text-rendering:geometricPrecision; image-rendering:optimizeQuality; fill-rule:evenodd; clip-rule:evenodd"
   id="svg92"
   sodipodi:docname="wombat-landing.svg"
   inkscape:version="1.3.2 (091e20e, 2023-11-25, custom)"
   xmlns:inkscape="http://www.inkscape.org/namespaces/inkscape"
   xmlns:sodipodi="http://sodipodi.sourceforge.net/DTD/sodipodi-0.dtd"
   xmlns="http://www.w3.org/2000/svg"
   xmlns:svg="http://www.w3.org/2000/svg">
  <defs
     id="defs92" />
  <sodipodi:namedview
     id="namedview92"
     pagecolor="#ffffff"
     bordercolor="#000000"
     borderopacity="0.25"
     inkscape:showpageshadow="2"
     inkscape:pageopacity="0.0"
     inkscape:pagecheckerboard="0"
     inkscape:deskcolor="#d1d1d1"
     inkscape:zoom="2.6124722"
     inkscape:cx="291.10358"
     inkscape:cy="198.47101"
     inkscape:window-width="2560"
     inkscape:window-height="1369"
     inkscape:window-x="1912"
     inkscape:window-y="-8"
     inkscape:window-maximized="1"
     inkscape:current-layer="svg92" />
  <g
     id="g2">
    <path
       style="opacity:1"
       fill="#cfe4fe"
       d="M 352.5,62.5 C 361.826,61.4156 368.993,64.7489 374,72.5C 374.483,73.448 374.649,74.448 374.5,75.5C 388.357,77.2226 393.857,84.8893 391,98.5C 390,100.5 389,102.5 388,104.5C 386.89,106.037 385.39,106.703 383.5,106.5C 382.092,112.409 378.426,116.243 372.5,118C 368.833,118.333 365.167,118.667 361.5,119C 353.887,123.846 346.553,123.346 339.5,117.5C 326.973,121.904 319.639,117.571 317.5,104.5C 317.635,101.225 318.635,98.2253 320.5,95.5C 315.642,84.6773 318.642,76.5106 329.5,71C 333.167,70.6667 336.833,70.3333 340.5,70C 343.802,66.1924 347.802,63.6924 352.5,62.5 Z"
       id="path2" />
  </g>
  <g
     id="g3">
    <path
       style="opacity:1"
       fill="#fec758"
       d="M 186.5,137.5 C 185.12,137.962 184.453,138.962 184.5,140.5C 185.795,142.81 187.129,145.143 188.5,147.5C 186.589,150.122 184.255,152.289 181.5,154C 178.021,154.566 175.355,153.233 173.5,150C 170.808,149.57 168.141,149.737 165.5,150.5C 165.658,153.902 165.324,157.236 164.5,160.5C 160.818,160.665 157.152,160.499 153.5,160C 152.083,157.017 151.25,153.85 151,150.5C 150,149.833 149,149.167 148,148.5C 145.309,153.267 141.476,154.6 136.5,152.5C 135.685,151.163 134.518,150.163 133,149.5C 132.517,148.552 132.351,147.552 132.5,146.5C 138.312,140.428 137.479,135.428 130,131.5C 127.451,132.519 124.951,132.519 122.5,131.5C 120.607,127.39 119.941,123.224 120.5,119C 123.096,117.864 125.763,117.031 128.5,116.5C 128.665,113.482 128.498,110.482 128,107.5C 126,106.167 124,104.833 122,103.5C 122.976,98.5552 125.309,94.2219 129,90.5C 131.722,91.4441 134.222,92.7775 136.5,94.5C 140.219,93.2901 142.219,90.7901 142.5,87C 141.907,84.4905 141.741,81.9905 142,79.5C 145.251,78.0176 148.585,76.6843 152,75.5C 154.56,77.8175 156.393,80.6508 157.5,84C 160.227,84.8184 162.894,84.6517 165.5,83.5C 166.86,80.7721 168.693,78.4388 171,76.5C 174.92,77.627 178.587,79.2936 182,81.5C 182.148,83.9054 181.648,86.2387 180.5,88.5C 182.726,96.2408 187.059,97.5742 193.5,92.5C 197.487,96.4492 199.154,101.116 198.5,106.5C 192.895,108.448 190.895,112.448 192.5,118.5C 196.053,118.943 199.053,120.443 201.5,123C 200.391,126.824 199.391,130.657 198.5,134.5C 195.934,134.656 193.434,134.322 191,133.5C 189.02,134.315 187.52,135.648 186.5,137.5 Z"
       id="path3" />
  </g>
  <g
     id="g4">
    <path
       style="opacity:1"
       fill="#fbfcfe"
       d="M 363.5,85.5 C 365.346,85.2222 366.68,85.8888 367.5,87.5C 363.025,93.8085 358.359,99.9752 353.5,106C 351.741,106.798 350.074,106.631 348.5,105.5C 345.479,102.314 342.646,98.9802 340,95.5C 339.51,94.2068 339.343,92.8734 339.5,91.5C 340.873,91.3433 342.207,91.51 343.5,92C 345.645,95.3124 348.312,98.1457 351.5,100.5C 355.524,95.4811 359.524,90.4811 363.5,85.5 Z"
       id="path4" />
  </g>
  <g
     id="g5">
    <path
       style="opacity:1"
       fill="#f9fbfc"
       d="M 155.5,102.5 C 171.334,101.828 177.501,109.161 174,124.5C 168.199,132.873 160.699,134.707 151.5,130C 145.096,123.709 143.93,116.542 148,108.5C 150.114,105.879 152.614,103.879 155.5,102.5 Z"
       id="path5" />
  </g>
  <g
     id="g6">
    <path
       style="opacity:1"
       fill="#cce2fe"
       d="M 336.5,125.5 C 343.364,124.878 345.697,127.878 343.5,134.5C 340.966,135.777 338.466,135.777 336,134.5C 335.366,131.445 335.532,128.445 336.5,125.5 Z"
       id="path6" />
  </g>
  <g
     id="g7">
    <path
       style="opacity:1"
       fill="#18265e"
       d="M 434.5,152.5 C 433.089,154.914 431.089,156.581 428.5,157.5C 429.341,155.621 429.675,153.621 429.5,151.5C 426.675,151.081 424.509,152.081 423,154.5C 423.653,150.297 423.486,146.13 422.5,142C 418.541,142.158 414.541,142.325 410.5,142.5C 405.644,139.398 405.311,135.898 409.5,132C 414.833,131.333 420.167,131.333 425.5,132C 434.941,135.78 437.941,142.614 434.5,152.5 Z"
       id="path7" />
  </g>
  <g
     id="g8">
    <path
       style="opacity:1"
       fill="#deecfe"
       d="M 330.5,225.5 C 325.524,225.238 321.691,227.238 319,231.5C 317.133,236.334 315.966,241.334 315.5,246.5C 319.296,246.162 322.296,246.495 324.5,247.5C 321.15,247.335 317.817,247.502 314.5,248C 313.244,248.417 312.577,249.25 312.5,250.5C 310.712,250.215 309.045,250.548 307.5,251.5C 308.963,254.357 309.963,257.357 310.5,260.5C 309.722,262.664 309.388,264.83 309.5,267C 310.078,268.417 311.078,269.25 312.5,269.5C 313.676,273.867 315.009,278.2 316.5,282.5C 322.128,283.495 327.794,283.829 333.5,283.5C 333.5,283.833 333.5,284.167 333.5,284.5C 329.5,284.5 325.5,284.5 321.5,284.5C 320.463,300.053 318.13,315.386 314.5,330.5C 314.667,331.833 314.833,333.167 315,334.5C 316.652,335.399 318.152,336.399 319.5,337.5C 319.161,350.557 318.161,363.557 316.5,376.5C 262.499,376.667 208.499,376.5 154.5,376C 147.367,375.529 140.367,374.362 133.5,372.5C 133.709,371.914 134.043,371.414 134.5,371C 137.241,370.023 140.075,369.523 143,369.5C 149.665,370.595 156.165,370.595 162.5,369.5C 163.496,354.342 163.83,339.009 163.5,323.5C 163.5,322.167 163.5,320.833 163.5,319.5C 163.5,309.5 163.5,299.5 163.5,289.5C 163.172,246.428 163.506,203.428 164.5,160.5C 165.324,157.236 165.658,153.902 165.5,150.5C 168.141,149.737 170.808,149.57 173.5,150C 175.355,153.233 178.021,154.566 181.5,154C 184.255,152.289 186.589,150.122 188.5,147.5C 187.129,145.143 185.795,142.81 184.5,140.5C 184.453,138.962 185.12,137.962 186.5,137.5C 209.792,136.843 233.125,136.51 256.5,136.5C 279.919,136.343 303.252,136.843 326.5,138C 328.049,139.214 329.215,140.714 330,142.5C 330.5,170.165 330.667,197.831 330.5,225.5 Z"
       id="path8" />
  </g>
  <g
     id="g9">
    <path
       style="opacity:1"
       fill="#182860"
       d="M 97.5,159.5 C 95.5045,163.484 93.0045,167.151 90,170.5C 88.6439,169.62 87.1439,169.286 85.5,169.5C 86.0129,173.327 87.0129,176.994 88.5,180.5C 87.9641,184.975 86.9641,189.308 85.5,193.5C 72.9112,196.432 65.9112,204.432 64.5,217.5C 61.1908,216.758 58.3575,215.091 56,212.5C 51.1385,200.086 54.4719,190.419 66,183.5C 69.0391,177.963 70.7058,171.963 71,165.5C 71.7303,159.864 74.5637,155.697 79.5,153C 85.0966,151.544 90.7633,151.211 96.5,152C 98.7146,154.242 99.0479,156.742 97.5,159.5 Z"
       id="path9" />
  </g>
  <g
     id="g10">
    <path
       style="opacity:1"
       fill="#6b95de"
       d="M 408.5,159.5 C 408.414,160.496 408.748,161.329 409.5,162C 415.697,163.555 415.864,165.055 410,166.5C 407.448,164.88 405.281,165.213 403.5,167.5C 398.489,167.666 393.489,167.499 388.5,167C 387.313,165.981 386.313,164.814 385.5,163.5C 377.862,162.503 370.196,162.169 362.5,162.5C 361.335,183.149 360.668,203.815 360.5,224.5C 359.07,224.579 357.736,224.246 356.5,223.5C 355.482,224.193 354.482,224.859 353.5,225.5C 353.167,225.5 352.833,225.5 352.5,225.5C 352.776,218.79 353.442,212.123 354.5,205.5C 357.58,199.392 356.913,193.725 352.5,188.5C 352.334,180.826 352.5,173.159 353,165.5C 353.396,162.304 354.562,159.47 356.5,157C 366.167,156.667 375.833,156.333 385.5,156C 386.5,155 387.5,154 388.5,153C 394.825,152.5 401.158,152.334 407.5,152.5C 407.198,155.059 407.532,157.393 408.5,159.5 Z"
       id="path10" />
  </g>
  <g
     id="g11">
    <path
       style="opacity:1"
       fill="#6a94dc"
       d="M 434.5,152.5 C 442.507,152.334 450.507,152.5 458.5,153C 459.5,154 460.5,155 461.5,156C 472.833,156.333 484.167,156.667 495.5,157C 496,157.5 496.5,158 497,158.5C 495.063,225.518 492.396,292.518 489,359.5C 488.003,361.323 486.836,362.99 485.5,364.5C 475.886,365.449 466.219,365.782 456.5,365.5C 456.495,361.466 456.162,357.466 455.5,353.5C 463.833,353.5 472.167,353.5 480.5,353.5C 482.7,289.832 485.033,226.165 487.5,162.5C 478.808,162.169 470.141,162.502 461.5,163.5C 460.636,165.197 459.303,166.363 457.5,167C 447.506,167.5 437.506,167.666 427.5,167.5C 427.187,163.958 427.521,160.625 428.5,157.5C 431.089,156.581 433.089,154.914 434.5,152.5 Z"
       id="path11" />
  </g>
  <g
     id="g12">
    <path
       style="opacity:1"
       fill="#bcd7fd"
       d="M 191.5,220.5 C 208.833,220.5 226.167,220.5 243.5,220.5C 241.155,209.826 234.488,204.159 223.5,203.5C 223.5,202.833 223.5,202.167 223.5,201.5C 226.668,202.792 229.835,202.792 233,201.5C 233.393,192.033 232.393,182.7 230,173.5C 225.314,164.716 218.481,162.55 209.5,167C 207.291,168.873 205.458,171.04 204,173.5C 202.272,182.772 201.606,192.105 202,201.5C 204.381,202.435 206.881,202.768 209.5,202.5C 209.5,202.833 209.5,203.167 209.5,203.5C 201.157,205.318 195.157,209.985 191.5,217.5C 190.596,218.209 190.263,219.209 190.5,220.5C 188.097,220.607 186.264,219.607 185,217.5C 184.333,198.5 184.333,179.5 185,160.5C 185.465,159.069 186.299,157.903 187.5,157C 206.167,156.333 224.833,156.333 243.5,157C 245.815,158.109 247.315,159.943 248,162.5C 248.667,181.167 248.667,199.833 248,218.5C 247.097,219.701 245.931,220.535 244.5,221C 226.662,221.829 208.995,221.662 191.5,220.5 Z"
       id="path12" />
  </g>
  <g
     id="g13">
    <path
       style="opacity:1"
       fill="#f8aa89"
       d="M 132.5,146.5 C 132.351,147.552 132.517,148.552 133,149.5C 134.518,150.163 135.685,151.163 136.5,152.5C 134.191,162.881 131.691,173.214 129,183.5C 126.015,188.311 122.515,192.644 118.5,196.5C 116.766,192.7 114.766,189.034 112.5,185.5C 114.461,183.037 116.628,180.703 119,178.5C 125.155,167.203 128.988,155.203 130.5,142.5C 131.705,143.577 132.372,144.91 132.5,146.5 Z"
       id="path13" />
  </g>
  <g
     id="g14">
    <path
       style="opacity:1"
       fill="#192961"
       d="M 223.5,201.5 C 222.569,199.967 221.902,198.3 221.5,196.5C 222.306,192.245 223.639,188.245 225.5,184.5C 219.133,183.067 213.299,180.401 208,176.5C 206.524,181.076 206.19,185.743 207,190.5C 208.564,193.371 210.064,196.204 211.5,199C 211.613,200.699 210.947,201.866 209.5,202.5C 206.881,202.768 204.381,202.435 202,201.5C 201.606,192.105 202.272,182.772 204,173.5C 205.458,171.04 207.291,168.873 209.5,167C 218.481,162.55 225.314,164.716 230,173.5C 232.393,182.7 233.393,192.033 233,201.5C 229.835,202.792 226.668,202.792 223.5,201.5 Z"
       id="path14" />
  </g>
  <g
     id="g15">
    <path
       style="opacity:1"
       fill="#f7ab8b"
       d="M 97.5,159.5 C 98.4959,159.414 99.3292,159.748 100,160.5C 104.112,167.206 104.612,174.206 101.5,181.5C 99.677,182.747 97.677,183.414 95.5,183.5C 95.155,187.115 95.8217,190.448 97.5,193.5C 96.6829,195.478 95.1829,196.478 93,196.5C 90.3173,195.907 87.8173,194.907 85.5,193.5C 86.9641,189.308 87.9641,184.975 88.5,180.5C 87.0129,176.994 86.0129,173.327 85.5,169.5C 87.1439,169.286 88.6439,169.62 90,170.5C 93.0045,167.151 95.5045,163.484 97.5,159.5 Z"
       id="path15" />
  </g>
  <g
     id="g16">
    <path
       style="opacity:1"
       fill="#f0f1ef"
       d="M 416.5,170.5 C 417.138,173.856 415.804,175.856 412.5,176.5C 413.49,173.849 414.49,171.183 415.5,168.5C 416.298,168.957 416.631,169.624 416.5,170.5 Z"
       id="path16" />
  </g>
  <g
     id="g17">
    <path
       style="opacity:1"
       fill="#bcd7fe"
       d="M 257.5,168.5 C 272.17,168.333 286.837,168.5 301.5,169C 302.833,170.333 302.833,171.667 301.5,173C 286.833,173.667 272.167,173.667 257.5,173C 256.272,171.51 256.272,170.01 257.5,168.5 Z"
       id="path17" />
  </g>
  <g
     id="g18">
    <path
       style="opacity:1"
       fill="#f7a889"
       d="M 428.5,157.5 C 427.521,160.625 427.187,163.958 427.5,167.5C 427.833,168.833 428.167,170.167 428.5,171.5C 426.192,171.914 423.858,172.247 421.5,172.5C 419.545,172.276 417.879,171.609 416.5,170.5C 416.631,169.624 416.298,168.957 415.5,168.5C 414.49,171.183 413.49,173.849 412.5,176.5C 412.64,178.124 411.973,179.29 410.5,180C 408.19,180.497 405.857,180.663 403.5,180.5C 403.5,179.167 403.5,177.833 403.5,176.5C 403.5,173.5 403.5,170.5 403.5,167.5C 405.281,165.213 407.448,164.88 410,166.5C 415.864,165.055 415.697,163.555 409.5,162C 408.748,161.329 408.414,160.496 408.5,159.5C 408.312,153.712 408.978,148.045 410.5,142.5C 414.541,142.325 418.541,142.158 422.5,142C 423.486,146.13 423.653,150.297 423,154.5C 424.509,152.081 426.675,151.081 429.5,151.5C 429.675,153.621 429.341,155.621 428.5,157.5 Z"
       id="path18" />
  </g>
  <g
     id="g19">
    <path
       style="opacity:1"
       fill="#f8fafd"
       d="M 403.5,167.5 C 403.5,170.5 403.5,173.5 403.5,176.5C 398.551,176.749 395.051,179.082 393,183.5C 391.93,190.152 391.097,196.819 390.5,203.5C 389.897,201.81 388.897,200.31 387.5,199C 383.833,198.333 380.167,198.333 376.5,199C 375.214,202.233 374.547,205.733 374.5,209.5C 374.667,212.833 374.833,216.167 375,219.5C 375.5,220 376,220.5 376.5,221C 381.194,221.564 385.86,221.397 390.5,220.5C 391.524,225.356 394.524,227.856 399.5,228C 398.353,235.42 398.187,242.92 399,250.5C 399.995,251.066 400.828,251.733 401.5,252.5C 400.834,258.658 400.5,264.991 400.5,271.5C 401.29,294.832 401.957,318.165 402.5,341.5C 402.5,345.5 402.5,349.5 402.5,353.5C 389.833,353.5 377.167,353.5 364.5,353.5C 364.5,348.5 364.5,343.5 364.5,338.5C 369.563,338.104 372.23,335.437 372.5,330.5C 371.352,321.461 370.018,312.461 368.5,303.5C 368.5,302.5 368.5,301.5 368.5,300.5C 374.509,300.666 380.509,300.499 386.5,300C 387,299.5 387.5,299 388,298.5C 388.939,291.512 389.272,284.512 389,277.5C 384.263,276.531 379.43,276.197 374.5,276.5C 375.445,271.595 375.779,266.595 375.5,261.5C 380.179,261.666 384.845,261.499 389.5,261C 390,260.5 390.5,260 391,259.5C 390.996,253.124 391.83,246.957 393.5,241C 393.739,238.741 392.739,237.574 390.5,237.5C 385.268,237.739 379.935,237.739 374.5,237.5C 372.39,230.389 367.723,226.056 360.5,224.5C 360.668,203.815 361.335,183.149 362.5,162.5C 370.196,162.169 377.862,162.503 385.5,163.5C 386.313,164.814 387.313,165.981 388.5,167C 393.489,167.499 398.489,167.666 403.5,167.5 Z"
       id="path19" />
  </g>
  <g
     id="g21">
    <path
       style="opacity:1"
       fill="#45a173"
       d="M 416.5,170.5 C 417.879,171.609 419.545,172.276 421.5,172.5C 423.858,172.247 426.192,171.914 428.5,171.5C 434.361,175.055 440.694,177.555 447.5,179C 450.728,180.563 452.895,183.063 454,186.5C 454.499,191.489 454.666,196.489 454.5,201.5C 454.5,203.5 454.5,205.5 454.5,207.5C 453.856,213.135 452.689,218.801 451,224.5C 449.667,225.833 448.333,227.167 447,228.5C 446.186,233.02 446.353,237.354 447.5,241.5C 447.5,243.167 447.5,244.833 447.5,246.5C 447.768,248.099 447.434,249.432 446.5,250.5C 431.678,254.858 416.678,255.524 401.5,252.5C 400.828,251.733 399.995,251.066 399,250.5C 398.187,242.92 398.353,235.42 399.5,228C 394.524,227.856 391.524,225.356 390.5,220.5C 389.57,216.6 389.237,212.6 389.5,208.5C 389.5,208.167 389.5,207.833 389.5,207.5C 390.434,206.432 390.768,205.099 390.5,203.5C 391.097,196.819 391.93,190.152 393,183.5C 395.051,179.082 398.551,176.749 403.5,176.5C 403.5,177.833 403.5,179.167 403.5,180.5C 405.857,180.663 408.19,180.497 410.5,180C 411.973,179.29 412.64,178.124 412.5,176.5C 415.804,175.856 417.138,173.856 416.5,170.5 Z"
       id="path21" />
  </g>
  <g
     id="g22">
    <path
       style="opacity:1"
       fill="#b9d6fe"
       d="M 258.5,186.5 C 274.167,186.5 289.833,186.5 305.5,186.5C 305.5,188.167 305.5,189.833 305.5,191.5C 289.833,191.5 274.167,191.5 258.5,191.5C 258.5,189.833 258.5,188.167 258.5,186.5 Z"
       id="path22" />
  </g>
  <g
     id="g23">
    <path
       style="opacity:1"
       fill="#1a2963"
       d="M 352.5,188.5 C 356.913,193.725 357.58,199.392 354.5,205.5C 352.61,205.297 351.11,205.963 350,207.5C 349.895,211.36 349.062,215.026 347.5,218.5C 345.49,220.171 343.157,220.838 340.5,220.5C 338.297,220.396 336.297,219.73 334.5,218.5C 333.597,215.609 333.264,212.609 333.5,209.5C 337.507,209.282 341.507,209.282 345.5,209.5C 346.426,205.906 346.759,202.24 346.5,198.5C 342.167,198.5 337.833,198.5 333.5,198.5C 333.337,196.143 333.503,193.81 334,191.5C 339.403,186.084 345.57,185.084 352.5,188.5 Z"
       id="path23" />
  </g>
  <g
     id="g24">
    <path
       style="opacity:1"
       fill="#9bc7fd"
       d="M 112.5,185.5 C 114.766,189.034 116.766,192.7 118.5,196.5C 116.572,199.255 114.072,201.589 111,203.5C 109.851,219.984 108.684,236.317 107.5,252.5C 100.891,253.423 94.2244,253.756 87.5,253.5C 83.5999,252.192 79.5999,251.192 75.5,250.5C 76.4165,245.331 77.9165,240.331 80,235.5C 80.6667,229.5 80.6667,223.5 80,217.5C 79.3907,221.283 77.224,222.95 73.5,222.5C 70.122,221.977 67.122,220.644 64.5,218.5C 64.5,218.167 64.5,217.833 64.5,217.5C 65.9112,204.432 72.9112,196.432 85.5,193.5C 87.8173,194.907 90.3173,195.907 93,196.5C 95.1829,196.478 96.6829,195.478 97.5,193.5C 101.101,191.023 104.767,188.523 108.5,186C 109.793,185.51 111.127,185.343 112.5,185.5 Z"
       id="path24" />
  </g>
  <g
     id="g25">
    <path
       style="opacity:1"
       fill="#af6a53"
       d="M 333.5,198.5 C 337.833,198.5 342.167,198.5 346.5,198.5C 346.759,202.24 346.426,205.906 345.5,209.5C 341.507,209.282 337.507,209.282 333.5,209.5C 333.5,205.833 333.5,202.167 333.5,198.5 Z"
       id="path25" />
  </g>
  <g
     id="g26">
    <path
       style="opacity:1"
       fill="#b9d6fe"
       d="M 258.5,200.5 C 274.5,200.5 290.5,200.5 306.5,200.5C 306.5,201.833 306.5,203.167 306.5,204.5C 290.5,204.5 274.5,204.5 258.5,204.5C 258.5,203.167 258.5,201.833 258.5,200.5 Z"
       id="path26" />
  </g>
  <g
     id="g27">
    <path
       style="opacity:1"
       fill="#f7a788"
       d="M 223.5,201.5 C 223.5,202.167 223.5,202.833 223.5,203.5C 223.912,208.643 221.578,211.309 216.5,211.5C 212.08,210.742 209.747,208.076 209.5,203.5C 209.5,203.167 209.5,202.833 209.5,202.5C 210.947,201.866 211.613,200.699 211.5,199C 210.064,196.204 208.564,193.371 207,190.5C 206.19,185.743 206.524,181.076 208,176.5C 213.299,180.401 219.133,183.067 225.5,184.5C 223.639,188.245 222.306,192.245 221.5,196.5C 221.902,198.3 222.569,199.967 223.5,201.5 Z"
       id="path27" />
  </g>
  <g
     id="g28">
    <path
       style="opacity:1"
       fill="#abc4f0"
       d="M 454.5,201.5 C 460.509,201.334 466.509,201.501 472.5,202C 473.833,203.667 473.833,205.333 472.5,207C 466.509,207.499 460.509,207.666 454.5,207.5C 454.5,205.5 454.5,203.5 454.5,201.5 Z"
       id="path28" />
  </g>
  <g
     id="g29">
    <path
       style="opacity:1"
       fill="#3572fe"
       d="M 209.5,203.5 C 209.747,208.076 212.08,210.742 216.5,211.5C 221.578,211.309 223.912,208.643 223.5,203.5C 234.488,204.159 241.155,209.826 243.5,220.5C 226.167,220.5 208.833,220.5 191.5,220.5C 191.5,219.5 191.5,218.5 191.5,217.5C 195.157,209.985 201.157,205.318 209.5,203.5 Z"
       id="path29" />
  </g>
  <g
     id="g30">
    <path
       style="opacity:1"
       fill="#74a6f9"
       d="M 389.5,207.5 C 389.5,207.833 389.5,208.167 389.5,208.5C 387.612,209.94 385.945,211.606 384.5,213.5C 381.994,210.826 379.661,207.992 377.5,205C 377.85,203.743 378.517,203.409 379.5,204C 381.359,205.558 382.859,207.391 384,209.5C 385.685,207.983 387.185,206.316 388.5,204.5C 389.386,205.325 389.719,206.325 389.5,207.5 Z"
       id="path30" />
  </g>
  <g
     id="g31">
    <path
       style="opacity:1"
       fill="#b16c53"
       d="M 335.5,209.5 C 342.146,212.248 341.812,212.915 334.5,211.5C 334.863,210.817 335.196,210.15 335.5,209.5 Z"
       id="path31" />
  </g>
  <g
     id="g32">
    <path
       style="opacity:1"
       fill="#daeafe"
       d="M 390.5,203.5 C 390.768,205.099 390.434,206.432 389.5,207.5C 389.719,206.325 389.386,205.325 388.5,204.5C 387.185,206.316 385.685,207.983 384,209.5C 382.859,207.391 381.359,205.558 379.5,204C 378.517,203.409 377.85,203.743 377.5,205C 379.661,207.992 381.994,210.826 384.5,213.5C 385.945,211.606 387.612,209.94 389.5,208.5C 389.237,212.6 389.57,216.6 390.5,220.5C 385.86,221.397 381.194,221.564 376.5,221C 376,220.5 375.5,220 375,219.5C 374.833,216.167 374.667,212.833 374.5,209.5C 374.547,205.733 375.214,202.233 376.5,199C 380.167,198.333 383.833,198.333 387.5,199C 388.897,200.31 389.897,201.81 390.5,203.5 Z"
       id="path32" />
  </g>
  <g
     id="g33">
    <path
       style="opacity:1"
       fill="#b56b52"
       d="M 354.5,205.5 C 353.442,212.123 352.776,218.79 352.5,225.5C 348.279,227.57 343.945,227.904 339.5,226.5C 339.5,226.167 339.5,225.833 339.5,225.5C 339.629,223.784 339.962,222.117 340.5,220.5C 343.157,220.838 345.49,220.171 347.5,218.5C 349.062,215.026 349.895,211.36 350,207.5C 351.11,205.963 352.61,205.297 354.5,205.5 Z"
       id="path33" />
  </g>
  <g
     id="g34">
    <path
       style="opacity:1"
       fill="#eaa78a"
       d="M 405.5,211.5 C 407.313,213.053 409.147,214.72 411,216.5C 411.497,219.146 411.664,221.813 411.5,224.5C 408.833,223.833 406.167,223.167 403.5,222.5C 404.167,218.833 404.833,215.167 405.5,211.5 Z"
       id="path34" />
  </g>
  <g
     id="g36">
    <path
       style="opacity:1"
       fill="#c8defd"
       d="M 330.5,225.5 C 333.167,225.5 335.833,225.5 338.5,225.5C 338.833,225.5 339.167,225.5 339.5,225.5C 339.5,225.833 339.5,226.167 339.5,226.5C 338.207,227.842 337.374,229.509 337,231.5C 335.622,237.432 334.789,243.432 334.5,249.5C 331.794,249.575 329.127,249.908 326.5,250.5C 326.218,249.222 325.551,248.222 324.5,247.5C 322.296,246.495 319.296,246.162 315.5,246.5C 315.966,241.334 317.133,236.334 319,231.5C 321.691,227.238 325.524,225.238 330.5,225.5 Z"
       id="path36" />
  </g>
  <g
     id="g37">
    <path
       style="opacity:1"
       fill="#fcc552"
       d="M 192.5,229.5 C 193.761,233.25 196.428,235.417 200.5,236C 199.132,237.34 197.799,238.674 196.5,240C 197.33,241.465 197.496,242.965 197,244.5C 194.456,241.92 191.956,241.92 189.5,244.5C 189.245,242.657 189.078,240.657 189,238.5C 188.097,237.299 186.931,236.465 185.5,236C 189.587,235.608 191.92,233.442 192.5,229.5 Z"
       id="path37" />
  </g>
  <g
     id="g38">
    <path
       style="opacity:1"
       fill="#fcc551"
       d="M 236.5,230.5 C 238.477,233.098 241.144,234.932 244.5,236C 243.667,236.833 242.833,237.667 242,238.5C 242.218,240.587 242.051,242.587 241.5,244.5C 239.044,241.92 236.544,241.92 234,244.5C 234.135,241.062 232.968,238.228 230.5,236C 233.788,235.434 235.788,233.6 236.5,230.5 Z"
       id="path38" />
  </g>
  <g
     id="g39">
    <path
       style="opacity:1"
       fill="#fdc550"
       d="M 258.5,230.5 C 260.477,233.098 263.144,234.932 266.5,236C 265.667,236.833 264.833,237.667 264,238.5C 264.218,240.587 264.051,242.587 263.5,244.5C 260.92,242.006 258.253,242.006 255.5,244.5C 255.167,244.167 254.833,243.833 254.5,243.5C 256.105,240.42 255.438,237.92 252.5,236C 254.059,235.02 255.726,234.187 257.5,233.5C 258.127,232.583 258.461,231.583 258.5,230.5 Z"
       id="path39" />
  </g>
  <g
     id="g40">
    <path
       style="opacity:1"
       fill="#fdc551"
       d="M 214.5,229.5 C 215.376,233.05 217.71,235.216 221.5,236C 220.667,236.833 219.833,237.667 219,238.5C 219.218,240.587 219.051,242.587 218.5,244.5C 216.044,241.92 213.544,241.92 211,244.5C 211.135,241.062 209.968,238.228 207.5,236C 208.949,234.883 210.616,234.216 212.5,234C 213.267,232.53 213.933,231.03 214.5,229.5 Z"
       id="path40" />
  </g>
  <g
     id="g41">
    <path
       style="opacity:1"
       fill="#5eb587"
       d="M 163.5,289.5 C 163.5,299.5 163.5,309.5 163.5,319.5C 155.929,301.684 147.763,284.018 139,266.5C 138.833,267 138.667,267.5 138.5,268C 147.569,286.294 155.902,304.794 163.5,323.5C 163.83,339.009 163.496,354.342 162.5,369.5C 162.167,369.5 161.833,369.5 161.5,369.5C 160.63,366.622 159.297,363.955 157.5,361.5C 157.667,361.167 157.833,360.833 158,360.5C 159,361.833 160,363.167 161,364.5C 153.387,340.602 143.554,317.602 131.5,295.5C 127.402,284.962 123.569,274.295 120,263.5C 118.919,258.53 118.586,253.53 119,248.5C 119.616,245.213 121.116,242.379 123.5,240C 127.926,239.209 132.259,239.543 136.5,241C 142.434,244.933 146.934,250.1 150,256.5C 154.627,267.571 159.127,278.571 163.5,289.5 Z"
       id="path41" />
  </g>
  <g
     id="g42">
    <path
       style="opacity:1"
       fill="#5590fd"
       d="M 352.5,225.5 C 352.833,225.5 353.167,225.5 353.5,225.5C 348.156,238.633 346.156,252.299 347.5,266.5C 346.167,266.5 344.833,266.5 343.5,266.5C 341.337,264.568 339.003,264.235 336.5,265.5C 335.512,260.211 334.845,254.878 334.5,249.5C 334.789,243.432 335.622,237.432 337,231.5C 337.374,229.509 338.207,227.842 339.5,226.5C 343.945,227.904 348.279,227.57 352.5,225.5 Z"
       id="path42" />
  </g>
  <g
     id="g43">
    <path
       style="opacity:1"
       fill="#a7c2ee"
       d="M 447.5,241.5 C 455.174,241.334 462.841,241.5 470.5,242C 471.38,243.356 471.714,244.856 471.5,246.5C 463.5,246.5 455.5,246.5 447.5,246.5C 447.5,244.833 447.5,243.167 447.5,241.5 Z"
       id="path43" />
  </g>
  <g
     id="g45">
    <path
       style="opacity:1"
       fill="#f8a98a"
       d="M 64.5,218.5 C 67.122,220.644 70.122,221.977 73.5,222.5C 73.8039,223.15 74.1373,223.817 74.5,224.5C 68.0971,240.66 63.2637,257.327 60,274.5C 58.4842,277.051 57.6509,276.718 57.5,273.5C 54.1667,275.167 50.8333,276.833 47.5,278.5C 50.1341,271.234 53.3008,264.234 57,257.5C 57.0235,245.497 58.8569,233.83 62.5,222.5C 62.9887,221.005 63.6554,219.671 64.5,218.5 Z"
       id="path45" />
  </g>
  <g
     id="g46">
    <path
       style="opacity:1"
       fill="#f8fbfe"
       d="M 455.5,353.5 C 453.834,332.168 452.167,310.835 450.5,289.5C 456.421,287.702 462.754,286.869 469.5,287C 470.833,285.667 470.833,284.333 469.5,283C 462.842,282.5 456.175,282.334 449.5,282.5C 448.876,271.799 447.876,261.132 446.5,250.5C 447.434,249.432 447.768,248.099 447.5,246.5C 455.5,246.5 463.5,246.5 471.5,246.5C 471.714,244.856 471.38,243.356 470.5,242C 462.841,241.5 455.174,241.334 447.5,241.5C 446.353,237.354 446.186,233.02 447,228.5C 448.333,227.167 449.667,225.833 451,224.5C 452.689,218.801 453.856,213.135 454.5,207.5C 460.509,207.666 466.509,207.499 472.5,207C 473.833,205.333 473.833,203.667 472.5,202C 466.509,201.501 460.509,201.334 454.5,201.5C 454.666,196.489 454.499,191.489 454,186.5C 452.895,183.063 450.728,180.563 447.5,179C 440.694,177.555 434.361,175.055 428.5,171.5C 428.167,170.167 427.833,168.833 427.5,167.5C 437.506,167.666 447.506,167.5 457.5,167C 459.303,166.363 460.636,165.197 461.5,163.5C 470.141,162.502 478.808,162.169 487.5,162.5C 485.033,226.165 482.7,289.832 480.5,353.5C 472.167,353.5 463.833,353.5 455.5,353.5 Z"
       id="path46" />
  </g>
  <g
     id="g47">
    <path
       style="opacity:1"
       fill="#3963c6"
       d="M 324.5,247.5 C 325.551,248.222 326.218,249.222 326.5,250.5C 321.833,250.5 317.167,250.5 312.5,250.5C 312.577,249.25 313.244,248.417 314.5,248C 317.817,247.502 321.15,247.335 324.5,247.5 Z"
       id="path47" />
  </g>
  <g
     id="g48">
    <path
       style="opacity:1"
       fill="#75a7f8"
       d="M 374.5,245.5 C 374.5,244.833 374.5,244.167 374.5,243.5C 375.117,243.389 375.617,243.056 376,242.5C 378.018,244.35 379.851,246.35 381.5,248.5C 383.557,246.731 385.39,244.731 387,242.5C 387.692,243.025 388.192,243.692 388.5,244.5C 386.877,247.621 384.71,250.288 382,252.5C 379.505,250.196 377.005,247.863 374.5,245.5 Z"
       id="path48" />
  </g>
  <g
     id="g49">
    <path
       style="opacity:1"
       fill="#3474fd"
       d="M 334.5,249.5 C 334.845,254.878 335.512,260.211 336.5,265.5C 334.695,266.237 333.029,267.237 331.5,268.5C 333.478,271.482 336.145,273.482 339.5,274.5C 340.75,277.006 341.416,279.673 341.5,282.5C 338.721,282.279 336.054,282.612 333.5,283.5C 327.794,283.829 322.128,283.495 316.5,282.5C 315.009,278.2 313.676,273.867 312.5,269.5C 314.472,268.549 316.472,267.549 318.5,266.5C 316.527,263.52 313.86,261.52 310.5,260.5C 309.963,257.357 308.963,254.357 307.5,251.5C 309.045,250.548 310.712,250.215 312.5,250.5C 317.167,250.5 321.833,250.5 326.5,250.5C 329.127,249.908 331.794,249.575 334.5,249.5 Z"
       id="path49" />
  </g>
  <g
     id="g50">
    <path
       style="opacity:1"
       fill="#d7e7fe"
       d="M 374.5,237.5 C 379.935,237.739 385.268,237.739 390.5,237.5C 392.739,237.574 393.739,238.741 393.5,241C 391.83,246.957 390.996,253.124 391,259.5C 390.5,260 390,260.5 389.5,261C 384.845,261.499 380.179,261.666 375.5,261.5C 375.313,256.155 374.98,250.822 374.5,245.5C 377.005,247.863 379.505,250.196 382,252.5C 384.71,250.288 386.877,247.621 388.5,244.5C 388.192,243.692 387.692,243.025 387,242.5C 385.39,244.731 383.557,246.731 381.5,248.5C 379.851,246.35 378.018,244.35 376,242.5C 375.617,243.056 375.117,243.389 374.5,243.5C 374.5,241.5 374.5,239.5 374.5,237.5 Z"
       id="path50" />
  </g>
  <g
     id="g51">
    <path
       style="opacity:1"
       fill="#2c4883"
       d="M 75.5,250.5 C 79.5999,251.192 83.5999,252.192 87.5,253.5C 90.9619,254.482 94.6286,254.815 98.5,254.5C 95.957,270.338 92.6237,286.005 88.5,301.5C 84.3395,312.173 79.8395,322.839 75,333.5C 69.4013,342.367 64.068,351.367 59,360.5C 57.9887,361.337 56.8221,361.67 55.5,361.5C 53.4261,360.486 51.4261,359.486 49.5,358.5C 52.4019,344.02 57.5685,330.354 65,317.5C 68.9174,301.078 71.2508,284.411 72,267.5C 72.9247,261.746 74.0913,256.079 75.5,250.5 Z"
       id="path51" />
  </g>
  <g
     id="g52">
    <path
       style="opacity:1"
       fill="#20326b"
       d="M 446.5,250.5 C 447.876,261.132 448.876,271.799 449.5,282.5C 449.198,285.059 449.532,287.393 450.5,289.5C 452.167,310.835 453.834,332.168 455.5,353.5C 456.162,357.466 456.495,361.466 456.5,365.5C 456.5,370.167 456.5,374.833 456.5,379.5C 456.5,379.833 456.5,380.167 456.5,380.5C 452.5,380.5 448.5,380.5 444.5,380.5C 443.5,380.5 442.5,380.5 441.5,380.5C 441.075,375.269 440.075,370.269 438.5,365.5C 438.376,360.951 437.709,356.618 436.5,352.5C 431.757,326.896 427.257,301.229 423,275.5C 422.166,301.519 420.999,327.519 419.5,353.5C 419.167,357.5 418.833,361.5 418.5,365.5C 418.958,371.387 418.292,377.054 416.5,382.5C 416.5,385.167 416.5,387.833 416.5,390.5C 408.228,391.085 400.228,390.418 392.5,388.5C 393.058,387.21 394.058,386.377 395.5,386C 398.754,385.75 401.754,384.75 404.5,383C 407.333,381.167 407.167,379.667 404,378.5C 403.501,374.179 403.334,369.846 403.5,365.5C 403.826,357.316 403.492,349.316 402.5,341.5C 401.957,318.165 401.29,294.832 400.5,271.5C 400.5,264.991 400.834,258.658 401.5,252.5C 416.678,255.524 431.678,254.858 446.5,250.5 Z"
       id="path52" />
  </g>
  <g
     id="g53">
    <path
       style="opacity:1"
       fill="#21346b"
       d="M 107.5,252.5 C 107.5,262.5 107.5,272.5 107.5,282.5C 106.331,295.185 104.998,307.851 103.5,320.5C 100.973,335.769 98.9732,351.102 97.5,366.5C 94.8333,366.5 92.1667,366.5 89.5,366.5C 88.2353,365.486 87.5687,363.986 87.5,362C 86.917,354.514 86.5837,347.014 86.5,339.5C 86.7289,326.8 87.3956,314.133 88.5,301.5C 92.6237,286.005 95.957,270.338 98.5,254.5C 94.6286,254.815 90.9619,254.482 87.5,253.5C 94.2244,253.756 100.891,253.423 107.5,252.5 Z"
       id="path53" />
  </g>
  <g
     id="g54">
    <path
       style="opacity:1"
       fill="#b8d5fe"
       d="M 185.5,257.5 C 223.5,257.5 261.5,257.5 299.5,257.5C 299.67,258.822 299.337,259.989 298.5,261C 261.167,261.667 223.833,261.667 186.5,261C 185.663,259.989 185.33,258.822 185.5,257.5 Z"
       id="path54" />
  </g>
  <g
     id="g55">
    <path
       style="opacity:1"
       fill="#b56954"
       d="M 310.5,260.5 C 313.86,261.52 316.527,263.52 318.5,266.5C 316.472,267.549 314.472,268.549 312.5,269.5C 311.078,269.25 310.078,268.417 309.5,267C 309.388,264.83 309.722,262.664 310.5,260.5 Z"
       id="path55" />
  </g>
  <g
     id="g56">
    <path
       style="opacity:1"
       fill="#b9715a"
       d="M 343.5,266.5 C 343.5,269.167 343.5,271.833 343.5,274.5C 342.167,274.5 340.833,274.5 339.5,274.5C 336.145,273.482 333.478,271.482 331.5,268.5C 333.029,267.237 334.695,266.237 336.5,265.5C 339.003,264.235 341.337,264.568 343.5,266.5 Z"
       id="path56" />
  </g>
  <g
     id="g57">
    <path
       style="opacity:1"
       fill="#b9d5fe"
       d="M 185.5,270.5 C 223.167,270.5 260.833,270.5 298.5,270.5C 298.5,271.833 298.5,273.167 298.5,274.5C 261.165,274.667 223.832,274.5 186.5,274C 185.663,272.989 185.33,271.822 185.5,270.5 Z"
       id="path57" />
  </g>
  <g
     id="g58">
    <path
       style="opacity:1"
       fill="#c4dcfd"
       d="M 360.5,224.5 C 367.723,226.056 372.39,230.389 374.5,237.5C 374.5,239.5 374.5,241.5 374.5,243.5C 374.5,244.167 374.5,244.833 374.5,245.5C 374.98,250.822 375.313,256.155 375.5,261.5C 375.779,266.595 375.445,271.595 374.5,276.5C 372.283,277.369 369.95,277.702 367.5,277.5C 367.174,286.349 367.507,295.016 368.5,303.5C 370.018,312.461 371.352,321.461 372.5,330.5C 372.23,335.437 369.563,338.104 364.5,338.5C 358.86,339.607 353.193,340.607 347.5,341.5C 347.5,329.5 347.5,317.5 347.5,305.5C 347.19,296.546 346.19,287.713 344.5,279C 344.833,278.667 345.167,278.333 345.5,278C 344.027,277.29 343.36,276.124 343.5,274.5C 343.5,271.833 343.5,269.167 343.5,266.5C 344.833,266.5 346.167,266.5 347.5,266.5C 346.156,252.299 348.156,238.633 353.5,225.5C 354.482,224.859 355.482,224.193 356.5,223.5C 357.736,224.246 359.07,224.579 360.5,224.5 Z"
       id="path58" />
  </g>
  <g
     id="g59">
    <path
       style="opacity:1"
       fill="#67a0fd"
       d="M 339.5,274.5 C 340.833,274.5 342.167,274.5 343.5,274.5C 343.36,276.124 344.027,277.29 345.5,278C 345.167,278.333 344.833,278.667 344.5,279C 346.19,287.713 347.19,296.546 347.5,305.5C 342.167,305.5 336.833,305.5 331.5,305.5C 332.287,298.515 332.953,291.515 333.5,284.5C 333.5,284.167 333.5,283.833 333.5,283.5C 336.054,282.612 338.721,282.279 341.5,282.5C 341.416,279.673 340.75,277.006 339.5,274.5 Z"
       id="path59" />
  </g>
  <g
     id="g60">
    <path
       style="opacity:1"
       fill="#daeafe"
       d="M 374.5,276.5 C 379.43,276.197 384.263,276.531 389,277.5C 389.272,284.512 388.939,291.512 388,298.5C 387.5,299 387,299.5 386.5,300C 380.509,300.499 374.509,300.666 368.5,300.5C 368.5,301.5 368.5,302.5 368.5,303.5C 367.507,295.016 367.174,286.349 367.5,277.5C 369.95,277.702 372.283,277.369 374.5,276.5 Z"
       id="path60" />
  </g>
  <g
     id="g61">
    <path
       style="opacity:1"
       fill="#74a7f7"
       d="M 373.5,281.5 C 375.853,283.101 378.02,285.101 380,287.5C 381.29,285.208 382.957,283.208 385,281.5C 385.692,282.025 386.192,282.692 386.5,283.5C 384.144,286.022 381.977,288.688 380,291.5C 377.128,288.963 374.628,286.13 372.5,283C 373.056,282.617 373.389,282.117 373.5,281.5 Z"
       id="path61" />
  </g>
  <g
     id="g62">
    <path
       style="opacity:1"
       fill="#a6c1ed"
       d="M 449.5,282.5 C 456.175,282.334 462.842,282.5 469.5,283C 470.833,284.333 470.833,285.667 469.5,287C 462.754,286.869 456.421,287.702 450.5,289.5C 449.532,287.393 449.198,285.059 449.5,282.5 Z"
       id="path62" />
  </g>
  <g
     id="g63">
    <path
       style="opacity:1"
       fill="#30836a"
       d="M 107.5,282.5 C 116.388,285.276 124.388,289.609 131.5,295.5C 143.554,317.602 153.387,340.602 161,364.5C 160,363.167 159,361.833 158,360.5C 157.833,360.833 157.667,361.167 157.5,361.5C 159.297,363.955 160.63,366.622 161.5,369.5C 157.486,369.666 153.486,369.499 149.5,369C 137.394,349.728 122.061,333.562 103.5,320.5C 104.998,307.851 106.331,295.185 107.5,282.5 Z"
       id="path63" />
  </g>
  <g
     id="g64">
    <path
       style="opacity:1"
       fill="#bbd6fe"
       d="M 186.5,283.5 C 223.835,283.333 261.168,283.5 298.5,284C 299.833,285.333 299.833,286.667 298.5,288C 261.167,288.667 223.833,288.667 186.5,288C 185.272,286.51 185.272,285.01 186.5,283.5 Z"
       id="path64" />
  </g>
  <g
     id="g65">
    <path
       style="opacity:1"
       fill="#c6ddfd"
       d="M 333.5,284.5 C 332.953,291.515 332.287,298.515 331.5,305.5C 330.824,316.906 329.491,328.24 327.5,339.5C 324.979,338.215 322.313,337.548 319.5,337.5C 318.152,336.399 316.652,335.399 315,334.5C 314.833,333.167 314.667,331.833 314.5,330.5C 318.13,315.386 320.463,300.053 321.5,284.5C 325.5,284.5 329.5,284.5 333.5,284.5 Z"
       id="path65" />
  </g>
  <g
     id="g66">
    <path
       style="opacity:1"
       fill="#f4f6fa"
       d="M 436.5,352.5 C 431.025,353.489 425.358,353.822 419.5,353.5C 420.999,327.519 422.166,301.519 423,275.5C 427.257,301.229 431.757,326.896 436.5,352.5 Z"
       id="path66" />
  </g>
  <g
     id="g67">
    <path
       style="opacity:1"
       fill="#3d8e71"
       d="M 163.5,319.5 C 163.5,320.833 163.5,322.167 163.5,323.5C 155.902,304.794 147.569,286.294 138.5,268C 138.667,267.5 138.833,267 139,266.5C 147.763,284.018 155.929,301.684 163.5,319.5 Z"
       id="path67" />
  </g>
  <g
     id="g69">
    <path
       style="opacity:1"
       fill="#bdd7fe"
       d="M 212.5,309.5 C 236.833,309.5 261.167,309.5 285.5,309.5C 285.714,311.144 285.38,312.644 284.5,314C 260.502,314.5 236.502,314.667 212.5,314.5C 212.5,312.833 212.5,311.167 212.5,309.5 Z"
       id="path69" />
  </g>
  <g
     id="g70">
    <path
       style="opacity:1"
       fill="#326bfc"
       d="M 187.5,309.5 C 193.425,309.192 199.259,309.525 205,310.5C 205.667,316.167 205.667,321.833 205,327.5C 204.5,328 204,328.5 203.5,329C 198.5,329.667 193.5,329.667 188.5,329C 187.692,328.692 187.025,328.192 186.5,327.5C 184.894,321.276 185.227,315.276 187.5,309.5 Z"
       id="path70" />
  </g>
  <g
     id="g71">
    <path
       style="opacity:1"
       fill="#e9eefd"
       d="M 199.5,314.5 C 201.028,314.517 201.528,315.184 201,316.5C 199.333,318.833 197.667,321.167 196,323.5C 195.282,324.451 194.449,324.617 193.5,324C 191.084,322.197 190.084,320.03 190.5,317.5C 191.833,318.5 193.167,319.5 194.5,320.5C 196.164,318.509 197.831,316.509 199.5,314.5 Z"
       id="path71" />
  </g>
  <g
     id="g72">
    <path
       style="opacity:1"
       fill="#b8d5fe"
       d="M 211.5,323.5 C 240.5,323.5 269.5,323.5 298.5,323.5C 298.5,324.833 298.5,326.167 298.5,327.5C 269.826,327.833 241.159,327.5 212.5,326.5C 211.873,325.583 211.539,324.583 211.5,323.5 Z"
       id="path72" />
  </g>
  <g
     id="g73">
    <path
       style="opacity:1"
       fill="#20326c"
       d="M 331.5,305.5 C 336.833,305.5 342.167,305.5 347.5,305.5C 347.5,317.5 347.5,329.5 347.5,341.5C 353.193,340.607 358.86,339.607 364.5,338.5C 364.5,343.5 364.5,348.5 364.5,353.5C 364.5,357.5 364.5,361.5 364.5,365.5C 364.83,384.341 364.497,403.007 363.5,421.5C 363.667,402.497 363.5,383.497 363,364.5C 362.667,365.5 362.333,366.5 362,367.5C 361.5,366.333 360.667,365.5 359.5,365C 361.18,364.653 362.18,363.653 362.5,362C 361.833,361.333 361.167,360.667 360.5,360C 360.667,359.5 360.833,359 361,358.5C 361.667,359.833 362.333,359.833 363,358.5C 363.667,354.5 363.667,350.5 363,346.5C 362.782,349.426 362.282,352.26 361.5,355C 362.993,356.156 362.826,356.99 361,357.5C 359.584,356.427 358.25,356.427 357,357.5C 356.667,356.833 356.333,356.167 356,355.5C 354.667,358.167 353.333,358.167 352,355.5C 350.43,355.67 348.597,356.003 346.5,356.5C 346.802,359.059 346.468,361.393 345.5,363.5C 344.188,352.88 343.354,342.214 343,331.5C 339.624,345.95 337.124,360.617 335.5,375.5C 332.603,389.621 330.103,403.954 328,418.5C 327.878,420.437 327.045,421.77 325.5,422.5C 322.164,422.533 318.997,421.866 316,420.5C 315.617,421.056 315.117,421.389 314.5,421.5C 313.925,419.924 313.592,418.258 313.5,416.5C 314.502,403.157 315.502,389.824 316.5,376.5C 318.161,363.557 319.161,350.557 319.5,337.5C 322.313,337.548 324.979,338.215 327.5,339.5C 329.491,328.24 330.824,316.906 331.5,305.5 Z"
       id="path73" />
  </g>
  <g
     id="g74">
    <path
       style="opacity:1"
       fill="#dee7f4"
       d="M 345.5,363.5 C 345.586,367.857 345.92,372.19 346.5,376.5C 342.936,375.577 339.269,375.244 335.5,375.5C 337.124,360.617 339.624,345.95 343,331.5C 343.354,342.214 344.188,352.88 345.5,363.5 Z"
       id="path74" />
  </g>
  <g
     id="g75">
    <path
       style="opacity:1"
       fill="#6791d9"
       d="M 402.5,341.5 C 403.492,349.316 403.826,357.316 403.5,365.5C 390.5,365.5 377.5,365.5 364.5,365.5C 364.5,361.5 364.5,357.5 364.5,353.5C 377.167,353.5 389.833,353.5 402.5,353.5C 402.5,349.5 402.5,345.5 402.5,341.5 Z"
       id="path75" />
  </g>
  <g
     id="g76">
    <path
       style="opacity:1"
       fill="#263b77"
       d="M 363.5,421.5 C 362.833,421.5 362.5,421.833 362.5,422.5C 359.5,422.5 356.5,422.5 353.5,422.5C 353.737,423.791 353.404,424.791 352.5,425.5C 352.539,424.244 352.039,423.244 351,422.5C 349.358,407.173 347.858,391.839 346.5,376.5C 345.92,372.19 345.586,367.857 345.5,363.5C 346.468,361.393 346.802,359.059 346.5,356.5C 348.597,356.003 350.43,355.67 352,355.5C 353.333,358.167 354.667,358.167 356,355.5C 356.333,356.167 356.667,356.833 357,357.5C 358.25,356.427 359.584,356.427 361,357.5C 362.826,356.99 362.993,356.156 361.5,355C 362.282,352.26 362.782,349.426 363,346.5C 363.667,350.5 363.667,354.5 363,358.5C 362.333,359.833 361.667,359.833 361,358.5C 360.833,359 360.667,359.5 360.5,360C 361.167,360.667 361.833,361.333 362.5,362C 362.18,363.653 361.18,364.653 359.5,365C 360.667,365.5 361.5,366.333 362,367.5C 362.333,366.5 362.667,365.5 363,364.5C 363.5,383.497 363.667,402.497 363.5,421.5 Z"
       id="path76" />
  </g>
  <g
     id="g77">
    <path
       style="opacity:1"
       fill="#6a95dc"
       d="M 436.5,352.5 C 437.709,356.618 438.376,360.951 438.5,365.5C 431.833,365.5 425.167,365.5 418.5,365.5C 418.833,361.5 419.167,357.5 419.5,353.5C 425.358,353.822 431.025,353.489 436.5,352.5 Z"
       id="path77" />
  </g>
  <g
     id="g78">
    <path
       style="opacity:1"
       fill="#f4aa8d"
       d="M 49.5,358.5 C 51.4261,359.486 53.4261,360.486 55.5,361.5C 55.2766,365.162 54.2766,368.495 52.5,371.5C 48.9666,370.971 46.6332,368.971 45.5,365.5C 46.0951,362.683 47.4284,360.35 49.5,358.5 Z"
       id="path78" />
  </g>
  <g
     id="g79">
    <path
       style="opacity:1"
       fill="#d3e3f8"
       d="M 456.5,379.5 C 456.5,374.833 456.5,370.167 456.5,365.5C 466.219,365.782 475.886,365.449 485.5,364.5C 487.044,364.297 488.378,363.63 489.5,362.5C 496.203,363.171 502.87,364.171 509.5,365.5C 492.221,367.277 474.887,367.943 457.5,367.5C 457.817,371.702 457.483,375.702 456.5,379.5 Z"
       id="path79" />
  </g>
  <g
     id="g81">
    <path
       style="opacity:1"
       fill="#f6a98c"
       d="M 89.5,366.5 C 92.1667,366.5 94.8333,366.5 97.5,366.5C 97.5,369.167 97.5,371.833 97.5,374.5C 97.1583,375.338 96.4916,375.672 95.5,375.5C 93.5,375.5 91.5,375.5 89.5,375.5C 89.5,372.5 89.5,369.5 89.5,366.5 Z"
       id="path81" />
  </g>
  <g
     id="g82">
    <path
       style="opacity:1"
       fill="#273e73"
       d="M 45.5,365.5 C 46.6332,368.971 48.9666,370.971 52.5,371.5C 52.2771,376.052 53.9437,379.719 57.5,382.5C 56.8478,383.725 55.6811,384.392 54,384.5C 52.1216,384.304 50.2883,383.971 48.5,383.5C 46.294,378.953 43.294,374.953 39.5,371.5C 41.1878,369.146 43.1878,367.146 45.5,365.5 Z"
       id="path82" />
  </g>
  <g
     id="g83">
    <path
       style="opacity:1"
       fill="#283f73"
       d="M 97.5,374.5 C 101.953,376.89 106.619,379.056 111.5,381C 112.337,382.011 112.67,383.178 112.5,384.5C 112.167,384.5 111.833,384.5 111.5,384.5C 104.352,383.508 97.0191,383.175 89.5,383.5C 89.5,381.5 89.5,379.5 89.5,377.5C 91.7354,377.795 93.7354,377.461 95.5,376.5C 95.5,376.167 95.5,375.833 95.5,375.5C 96.4916,375.672 97.1583,375.338 97.5,374.5 Z"
       id="path83" />
  </g>
  <g
     id="g84">
    <path
       style="opacity:1"
       fill="#16214a"
       d="M 444.5,380.5 C 448.5,380.5 452.5,380.5 456.5,380.5C 456.5,382.833 456.5,385.167 456.5,387.5C 456.5,388.833 456.5,390.167 456.5,391.5C 452.167,391.5 447.833,391.5 443.5,391.5C 443.5,390.167 443.5,388.833 443.5,387.5C 443.993,385.194 444.326,382.861 444.5,380.5 Z"
       id="path84" />
  </g>
  <g
     id="g85">
    <path
       style="opacity:1"
       fill="#d5e4f8"
       d="M 89.5,375.5 C 91.5,375.5 93.5,375.5 95.5,375.5C 95.5,375.833 95.5,376.167 95.5,376.5C 93.1667,376.5 90.8333,376.5 88.5,376.5C 88.5,379.167 88.5,381.833 88.5,384.5C 96.1667,384.5 103.833,384.5 111.5,384.5C 111.833,384.5 112.167,384.5 112.5,384.5C 116.555,384.176 120.555,384.509 124.5,385.5C 95.0183,388.725 65.5183,389.058 36,386.5C 35.1667,386.167 34.3333,385.833 33.5,385.5C 38.3537,383.847 43.3537,383.181 48.5,383.5C 50.2883,383.971 52.1216,384.304 54,384.5C 55.6811,384.392 56.8478,383.725 57.5,382.5C 67.2905,382.563 77.2905,382.563 87.5,382.5C 86.9898,379.612 87.6565,377.279 89.5,375.5 Z"
       id="path85" />
  </g>
  <g
     id="g86">
    <path
       style="opacity:1"
       fill="#06154c"
       d="M 95.5,376.5 C 93.7354,377.461 91.7354,377.795 89.5,377.5C 89.5,379.5 89.5,381.5 89.5,383.5C 97.0191,383.175 104.352,383.508 111.5,384.5C 103.833,384.5 96.1667,384.5 88.5,384.5C 88.5,381.833 88.5,379.167 88.5,376.5C 90.8333,376.5 93.1667,376.5 95.5,376.5 Z"
       id="path86" />
  </g>
  <g
     id="g87">
    <path
       style="opacity:1"
       fill="#d6e7fd"
       d="M 417.5,385.5 C 425.228,387.418 433.228,388.085 441.5,387.5C 441.343,388.873 441.51,390.207 442,391.5C 442.21,389.942 442.71,388.609 443.5,387.5C 443.5,388.833 443.5,390.167 443.5,391.5C 447.833,391.5 452.167,391.5 456.5,391.5C 456.5,390.167 456.5,388.833 456.5,387.5C 457.29,388.609 457.79,389.942 458,391.5C 458.49,390.207 458.657,388.873 458.5,387.5C 464.906,387.441 471.239,388.107 477.5,389.5C 481.378,390.101 481.378,390.935 477.5,392C 444.492,395.236 411.492,395.236 378.5,392C 376.956,391.71 375.623,391.044 374.5,390C 380.407,388.639 386.407,388.139 392.5,388.5C 392.5,389.5 392.5,390.5 392.5,391.5C 400.833,391.5 409.167,391.5 417.5,391.5C 417.5,389.5 417.5,387.5 417.5,385.5 Z"
       id="path87" />
  </g>
  <g
     id="g88">
    <path
       style="opacity:1"
       fill="#0a0d22"
       d="M 416.5,382.5 C 417.404,383.209 417.737,384.209 417.5,385.5C 417.5,387.5 417.5,389.5 417.5,391.5C 409.167,391.5 400.833,391.5 392.5,391.5C 392.5,390.5 392.5,389.5 392.5,388.5C 400.228,390.418 408.228,391.085 416.5,390.5C 416.5,387.833 416.5,385.167 416.5,382.5 Z"
       id="path88" />
  </g>
  <g
     id="g90">
    <path
       style="opacity:1"
       fill="#16234e"
       d="M 362.5,422.5 C 363.441,424.05 364.107,425.716 364.5,427.5C 364.5,428.833 364.5,430.167 364.5,431.5C 360.5,431.5 356.5,431.5 352.5,431.5C 351.709,429.691 351.709,427.691 352.5,425.5C 353.404,424.791 353.737,423.791 353.5,422.5C 356.5,422.5 359.5,422.5 362.5,422.5 Z"
       id="path90" />
  </g>
  <g
     id="g91">
    <path
       style="opacity:1"
       fill="#15214b"
       d="M 325.5,422.5 C 326.301,424.042 326.634,425.708 326.5,427.5C 326.5,428.833 326.5,430.167 326.5,431.5C 317.105,432.138 308.105,431.471 299.5,429.5C 299.953,428.542 300.619,427.708 301.5,427C 306.555,426.601 310.889,424.768 314.5,421.5C 315.117,421.389 315.617,421.056 316,420.5C 318.997,421.866 322.164,422.533 325.5,422.5 Z"
       id="path91" />
  </g>
  <g
     id="g92">
    <path
       style="opacity:1"
       fill="#d3e5fa"
       d="M 326.5,427.5 C 334.534,427.302 342.534,427.635 350.5,428.5C 350.238,429.978 350.571,431.311 351.5,432.5C 352.107,432.376 352.44,432.043 352.5,431.5C 356.5,431.5 360.5,431.5 364.5,431.5C 364.5,430.167 364.5,428.833 364.5,427.5C 371.667,428.041 378.667,429.208 385.5,431C 379.486,431.901 373.486,432.734 367.5,433.5C 344.847,434.577 322.18,434.744 299.5,434C 294.073,433.157 288.74,431.99 283.5,430.5C 288.718,428.287 294.052,427.954 299.5,429.5C 308.105,431.471 317.105,432.138 326.5,431.5C 326.5,430.167 326.5,428.833 326.5,427.5 Z"
       id="path92" />
  </g>
</svg>
